<svg xmlns="http://www.w3.org/2000/svg" xmlns:xlink="http://www.w3.org/1999/xlink" width="500" zoomAndPan="magnify" viewBox="0 0 375 374.999991" height="500" preserveAspectRatio="xMidYMid meet" version="1.0"><defs><g/><clipPath id="dfa189c9af"><path d="M 181.527344 149.332031 L 294 149.332031 L 294 225.667969 L 181.527344 225.667969 Z M 181.527344 149.332031 " clip-rule="nonzero"/></clipPath><clipPath id="4876a6ac55"><path d="M 198.777344 149.332031 L 276.777344 149.332031 C 281.355469 149.332031 285.742188 151.148438 288.976562 154.382812 C 292.210938 157.617188 294.027344 162.003906 294.027344 166.582031 L 294.027344 208.417969 C 294.027344 212.996094 292.210938 217.382812 288.976562 220.617188 C 285.742188 223.851562 281.355469 225.667969 276.777344 225.667969 L 198.777344 225.667969 C 194.203125 225.667969 189.816406 223.851562 186.582031 220.617188 C 183.347656 217.382812 181.527344 212.996094 181.527344 208.417969 L 181.527344 166.582031 C 181.527344 162.003906 183.347656 157.617188 186.582031 154.382812 C 189.816406 151.148438 194.203125 149.332031 198.777344 149.332031 Z M 198.777344 149.332031 " clip-rule="nonzero"/></clipPath></defs><g fill="#1d2428" fill-opacity="1"><g transform="translate(80.970702, 199.499987)"><g><path d="M 20.757812 -26.316406 L 2.199219 -26.316406 C 1.28125 -26.316406 1.039062 -25.878906 1.039062 -25.160156 L 1.039062 -21.839844 C 1.039062 -21.117188 1.28125 -20.679688 2.199219 -20.679688 L 8.359375 -20.679688 L 8.359375 -1.160156 C 8.359375 -0.238281 8.800781 0 9.519531 0 L 13.480469 0 C 14.199219 0 14.640625 -0.238281 14.640625 -1.160156 L 14.640625 -20.679688 L 20.757812 -20.679688 C 21.679688 -20.679688 21.917969 -21.117188 21.917969 -21.839844 L 21.917969 -25.160156 C 21.917969 -25.878906 21.679688 -26.316406 20.757812 -26.316406 Z M 20.757812 -26.316406 "/></g></g></g><g fill="#1d2428" fill-opacity="1"><g transform="translate(103.928419, 199.499987)"><g><path d="M 23.636719 -8.441406 L 23.636719 -17.878906 C 23.636719 -24.199219 17.640625 -26.917969 12.878906 -26.917969 C 8.121094 -26.917969 2.199219 -24.199219 2.199219 -17.878906 L 2.199219 -8.441406 C 2.199219 -2.121094 8.121094 0.601562 12.878906 0.601562 C 17.640625 0.601562 23.636719 -2.121094 23.636719 -8.441406 Z M 17.359375 -17.320312 L 17.359375 -9 C 17.359375 -6.441406 15.519531 -4.960938 12.878906 -4.960938 C 10.28125 -4.960938 8.441406 -6.441406 8.441406 -9 L 8.441406 -17.320312 C 8.441406 -19.878906 10.28125 -21.359375 12.878906 -21.359375 C 15.519531 -21.359375 17.359375 -19.878906 17.359375 -17.320312 Z M 17.359375 -17.320312 "/></g></g></g><g fill="#1d2428" fill-opacity="1"><g transform="translate(129.725861, 199.499987)"><g><path d="M 13.078125 -26.316406 L 4.121094 -26.316406 C 3.199219 -26.316406 2.960938 -25.878906 2.960938 -25.160156 L 2.960938 -1.160156 C 2.960938 -0.441406 3.199219 0 4.121094 0 L 13.078125 0 C 17.839844 0 23.839844 -2.71875 23.839844 -9 L 23.839844 -17.320312 C 23.839844 -23.558594 17.839844 -26.316406 13.078125 -26.316406 Z M 17.558594 -16.757812 L 17.558594 -9.558594 C 17.558594 -7 15.71875 -5.558594 13.078125 -5.558594 L 9.238281 -5.558594 L 9.238281 -20.757812 L 13.078125 -20.757812 C 15.71875 -20.757812 17.558594 -19.277344 17.558594 -16.757812 Z M 17.558594 -16.757812 "/></g></g></g><g fill="#1d2428" fill-opacity="1"><g transform="translate(155.723276, 199.499987)"><g><path d="M 23.636719 -8.441406 L 23.636719 -17.878906 C 23.636719 -24.199219 17.640625 -26.917969 12.878906 -26.917969 C 8.121094 -26.917969 2.199219 -24.199219 2.199219 -17.878906 L 2.199219 -8.441406 C 2.199219 -2.121094 8.121094 0.601562 12.878906 0.601562 C 17.640625 0.601562 23.636719 -2.121094 23.636719 -8.441406 Z M 17.359375 -17.320312 L 17.359375 -9 C 17.359375 -6.441406 15.519531 -4.960938 12.878906 -4.960938 C 10.28125 -4.960938 8.441406 -6.441406 8.441406 -9 L 8.441406 -17.320312 C 8.441406 -19.878906 10.28125 -21.359375 12.878906 -21.359375 C 15.519531 -21.359375 17.359375 -19.878906 17.359375 -17.320312 Z M 17.359375 -17.320312 "/></g></g></g><g clip-path="url(#dfa189c9af)"><g clip-path="url(#4876a6ac55)"><path fill="#4b39ef" d="M 181.527344 149.332031 L 293.953125 149.332031 L 293.953125 225.667969 L 181.527344 225.667969 Z M 181.527344 149.332031 " fill-opacity="1" fill-rule="nonzero"/></g></g><g fill="#f5fff9" fill-opacity="1"><g transform="translate(197.121085, 199.499987)"><g><path d="M 23.277344 -26.316406 L 19.320312 -26.316406 C 18.597656 -26.316406 18.160156 -26.078125 18.160156 -25.160156 L 18.160156 -16.117188 L 9.238281 -16.117188 L 9.238281 -25.160156 C 9.238281 -26.078125 8.839844 -26.316406 8.078125 -26.316406 L 4.121094 -26.316406 C 3.398438 -26.316406 2.960938 -26.078125 2.960938 -25.160156 L 2.960938 -1.160156 C 2.960938 -0.238281 3.398438 0 4.121094 0 L 8.078125 0 C 8.839844 0 9.238281 -0.238281 9.238281 -1.160156 L 9.238281 -10.199219 L 18.160156 -10.199219 L 18.160156 -1.160156 C 18.160156 -0.238281 18.597656 0 19.320312 0 L 23.277344 0 C 24 0 24.4375 -0.238281 24.4375 -1.160156 L 24.4375 -25.160156 C 24.4375 -26.078125 24 -26.316406 23.277344 -26.316406 Z M 23.277344 -26.316406 "/></g></g></g><g fill="#f5fff9" fill-opacity="1"><g transform="translate(224.518365, 199.499987)"><g><path d="M 22.636719 -26.316406 L 18.679688 -26.316406 C 17.957031 -26.316406 17.519531 -26.078125 17.519531 -25.160156 L 17.519531 -8.917969 C 17.519531 -6.398438 15.839844 -4.960938 13.199219 -4.960938 C 10.558594 -4.960938 8.917969 -6.398438 8.917969 -8.917969 L 8.917969 -25.160156 C 8.917969 -26.078125 8.480469 -26.316406 7.757812 -26.316406 L 3.800781 -26.316406 C 3.078125 -26.316406 2.640625 -26.078125 2.640625 -25.160156 L 2.640625 -8.039062 C 2.640625 -1.761719 8.441406 0.601562 13.199219 0.601562 C 17.957031 0.601562 23.796875 -1.761719 23.796875 -8.039062 L 23.796875 -25.160156 C 23.796875 -26.078125 23.359375 -26.316406 22.636719 -26.316406 Z M 22.636719 -26.316406 "/></g></g></g><g fill="#f5fff9" fill-opacity="1"><g transform="translate(250.955737, 199.499987)"><g><path d="M 21.71875 -13.640625 C 22.078125 -13.800781 24.636719 -15.078125 24.636719 -19.117188 C 24.636719 -22.878906 21.839844 -26.359375 15.320312 -26.359375 L 4.121094 -26.359375 C 3.199219 -26.359375 2.960938 -25.917969 2.960938 -25.199219 L 2.960938 -1.160156 C 2.960938 -0.441406 3.199219 0 4.121094 0 L 15.878906 0 C 21.4375 0 25.398438 -2.601562 25.398438 -7.679688 C 25.398438 -12 22.039062 -13.519531 21.71875 -13.640625 Z M 15.960938 -5.679688 L 9.238281 -5.679688 L 9.238281 -20.71875 L 15.320312 -20.71875 C 17.398438 -20.71875 18.640625 -20.277344 18.640625 -18.480469 C 18.640625 -16.917969 17.640625 -16.078125 15.320312 -16.078125 L 14.800781 -16.078125 C 13.878906 -16.078125 13.640625 -15.640625 13.640625 -14.917969 L 13.640625 -11.878906 C 13.640625 -11.160156 13.878906 -10.71875 14.800781 -10.71875 L 15.71875 -10.71875 C 17.640625 -10.71875 19.039062 -10.160156 19.039062 -8.28125 C 19.039062 -6.480469 17.917969 -5.679688 15.960938 -5.679688 Z M 15.960938 -5.679688 "/></g></g></g></svg>